<svg xmlns="http://www.w3.org/2000/svg" width="600" height="200"><rect width="100%" height="100%" fill="white"/><polyline fill="none" stroke="blue" points="20.00,29.06 29.49,23.95 38.98,23.82 48.47,24.63 57.97,23.05 67.46,22.60 76.95,22.46 86.44,23.56 95.93,22.24 105.42,22.00 114.92,22.28 124.41,22.02 133.90,22.03 143.39,21.63 152.88,21.88 162.37,21.76 171.86,21.72 181.36,21.54 190.85,21.65 200.34,21.68 209.83,21.92 219.32,21.53 228.81,21.28 238.31,21.52 247.80,21.45 257.29,21.48 266.78,21.40 276.27,22.71 285.76,22.25 295.25,21.56 304.75,21.50 314.24,21.68 323.73,21.58 333.22,21.43 342.71,21.69 352.20,21.51 361.69,21.93 371.19,21.82 380.68,21.50 390.17,21.46 399.66,21.57 409.15,21.42 418.64,22.37 428.14,21.45 437.63,21.39 447.12,22.49 456.61,21.51 466.10,21.97 475.59,22.78 485.08,21.23 494.58,21.29 504.07,21.38 513.56,21.43 523.05,21.57 532.54,21.65 542.03,21.34 551.53,21.21 561.02,21.59 570.51,21.44 580.00,21.36"/></svg>